<svg viewBox="0 0 121 27" version="1.1" xmlns="http://www.w3.org/2000/svg" xmlns:xlink="http://www.w3.org/1999/xlink">
    <defs></defs>
    <g id="Logo" fill="#404040">
        <path d="M12.5493117,17.2699244 C12.0128593,16.8021399 11.3909616,16.4002931 10.6831266,16.0646951 C9.97512756,15.7290971 9.22399584,15.4496394 8.43071547,15.2255445 C7.2079124,14.8799936 6.26916176,14.5342872 5.61511957,14.1882698 C4.96042136,13.8425634 4.63356426,13.4358957 4.63356426,12.9676447 C4.63356426,12.7035829 4.71917359,12.4642477 4.89104827,12.2507277 C5.06259495,12.0370522 5.28219437,11.8645878 5.55066656,11.7319348 C5.81864674,11.5999039 6.10827526,11.4983536 6.41955211,11.4268174 C6.73017295,11.3559033 7.02537756,11.3201352 7.30434591,11.3201352 C8.11943862,11.3201352 8.87007832,11.5031745 9.55675703,11.8692532 C10.2431077,12.2353319 10.8545093,12.7340635 11.3909616,13.3643595 L14.1581768,10.7097449 C12.3523446,8.67593998 10.0299044,7.65857097 7.19233216,7.65857097 C6.31032641,7.65857097 5.43963683,7.78064903 4.57993542,8.02480515 C3.71957801,8.26880576 2.95089802,8.61964411 2.27356746,9.07747571 C1.5964009,9.5351518 1.04830435,10.1047976 0.628949808,10.786102 C0.209759271,11.467873 0,12.2353319 0,13.0897228 C0,13.8630912 0.160886509,14.5443956 0.482659527,15.1341026 C0.804432545,15.7242762 1.23329923,16.2477344 1.7697516,16.7054105 C2.30571196,17.1630866 2.91711349,17.5498486 3.6039562,17.8649188 C4.29030691,18.1804556 4.99814194,18.4398521 5.72762532,18.6429526 C6.97158472,18.9889701 7.93690377,19.3399639 8.62374648,19.6956232 C9.30993318,20.051749 9.65335454,20.4941848 9.65335454,21.0229305 C9.65335454,21.531615 9.41210678,21.912934 8.92944725,22.1671985 C8.44662372,22.4216185 7.84047027,22.5485175 7.1113149,22.5485175 C6.27473785,22.5485175 5.49146164,22.3606572 4.76230627,21.9840036 C4.03282289,21.6078166 3.38927685,21.0838918 2.83166816,20.4126957 L0.0323085038,23.0976355 C0.935142583,24.1961825 1.98295492,24.9947441 3.17656554,25.4930092 C4.36968414,25.9911188 5.67596451,26.2404068 7.09524265,26.2404068 C7.93329572,26.2404068 8.78266496,26.1231497 9.64285838,25.8895685 C10.5025598,25.6559873 11.2768159,25.3098143 11.9646426,24.8521382 C12.6524693,24.3944621 13.211554,23.8299483 13.6418967,23.1587523 C14.0717474,22.4875562 14.2869188,21.7047015 14.2869188,20.8094105 C14.2869188,20.09747 14.1311164,19.4468017 13.8203315,18.8564726 C13.5092187,18.2667656 13.0852721,17.7381754 12.5493117,17.2699244" id="Fill-2"></path>
        <path d="M33.0458593,10.3284259 C32.1454853,9.50451565 31.0876688,8.85384737 29.8773299,8.3756435 C28.663711,7.89790618 27.3713708,7.65857097 25.9991614,7.65857097 C24.6477804,7.65857097 23.3711845,7.89790618 22.1700297,8.3756435 C20.968383,8.85384737 19.9176186,9.51509056 19.0165886,10.3589066 C18.1157225,11.2031891 17.4023114,12.1896109 16.8768472,13.3186386 C16.5253897,14.0730343 16.2943101,14.8624206 16.1778683,15.6850868 L20.8617813,15.6850868 C20.9296784,15.3908553 21.0210278,15.1050216 21.1387816,14.8289852 C21.41693,14.1781614 21.7965959,13.6083601 22.2776154,13.1202034 C22.7587989,12.6320467 23.3205077,12.2507277 23.9619217,11.9760909 C24.6034997,11.7014542 25.2883744,11.5641358 26.0152337,11.5641358 C26.742257,11.5641358 27.4271317,11.7014542 28.0683817,11.9760909 C28.7096317,12.2507277 29.2705205,12.6320467 29.752688,13.1202034 C30.2332155,13.6083601 30.6137014,14.1781614 30.8908657,14.8289852 C31.1696701,15.4802756 31.3090723,16.1819523 31.3090723,16.9343263 C31.3090723,17.6870114 31.1696701,18.3888437 30.8908657,19.0396674 C30.6137014,19.6908023 30.2332155,20.260137 29.752688,20.7482937 C29.2705205,21.2364505 28.7096317,21.617925 28.0683817,21.8924062 C27.4271317,22.1671985 26.742257,22.3043613 26.0152337,22.3043613 C25.2883744,22.3043613 24.6034997,22.1671985 23.9619217,21.8924062 C23.3205077,21.617925 22.7587989,21.2364505 22.2776154,20.7482937 C21.7965959,20.260137 21.41693,19.6908023 21.1387816,19.0396674 C21.0001995,18.7149554 20.8960579,18.3774912 20.8266848,18.0274304 L16.1539239,18.0274304 C16.2588855,18.9224103 16.4929172,19.7738465 16.8607749,20.5804947 C17.375579,21.7093669 18.083578,22.6911233 18.9844441,23.5248309 C19.8854741,24.3591606 20.9362385,25.0151163 22.1378852,25.4930092 C23.33904,25.9707465 24.626132,26.2099262 25.9991614,26.2099262 C27.3713708,26.2099262 28.663711,25.9707465 29.8773299,25.4930092 C31.0876688,25.0151163 32.1454853,24.3639815 33.0458593,23.5402268 C33.9478734,22.7163165 34.6547244,21.7398475 35.1696925,20.6109754 C35.6846605,19.4819477 35.9421445,18.2568127 35.9421445,16.9343263 C35.9421445,15.6326787 35.6846605,14.4122092 35.1696925,13.2727621 C34.6547244,12.1339371 33.9478734,11.1523362 33.0458593,10.3284259" id="Fill-3"></path>
        <path d="M46.9467161,8.1467277 L44.0192705,8.1467277 L44.0192705,6.74321879 C44.0192705,5.70578856 44.2062334,4.99929094 44.5817992,4.62263736 C44.9573651,4.24645032 45.595335,4.05812353 46.4957091,4.05812353 C46.9040754,4.05812353 47.2796413,4.08393876 47.6224066,4.13432512 C47.965172,4.18548905 48.3620582,4.29232679 48.8130652,4.45483835 L48.8130652,0.427195453 C47.5682858,0.142605836 46.4005876,0 45.3050505,0 C43.1074162,0 41.5723523,0.579754149 40.6965786,1.73926245 C39.822445,2.89861523 39.3845582,4.58733581 39.3845582,6.80433558 L39.3845582,8.1467277 L37.1328031,8.1467277 L37.1328031,11.9913313 L39.3845582,11.9913313 L39.3845582,25.7522501 L44.0192705,25.7522501 L44.0192705,11.9913313 L46.9467161,11.9913313 L46.9467161,8.1467277" id="Fill-4"></path>
        <path d="M65.4806451,10.3284259 C64.5802711,9.50451565 63.5240946,8.85384737 62.3121157,8.3756435 C61.1001368,7.89790618 59.8061566,7.65857097 58.4334552,7.65857097 C57.0820742,7.65857097 55.8061343,7.89790618 54.6056355,8.3756435 C53.4034968,8.85384737 52.3522404,9.51509056 51.4518664,10.3589066 C50.5514923,11.2031891 49.8380812,12.1896109 49.311633,13.3186386 C48.9606675,14.0730343 48.7294239,14.8624206 48.6129821,15.6850868 L53.2968951,15.6850868 C53.3641362,15.3908553 53.4559776,15.1050216 53.5740595,14.8289852 C53.8512238,14.1781614 54.2317097,13.6083601 54.7122372,13.1202034 C55.1944047,12.6320467 55.7552935,12.2507277 56.3965435,11.9760909 C57.0377935,11.7014542 57.7233242,11.5641358 58.4498555,11.5641358 C59.1780269,11.5641358 59.8619175,11.7014542 60.5031675,11.9760909 C61.1444175,12.2507277 61.7069463,12.6320467 62.1874738,13.1202034 C62.6680013,13.6083601 63.0484872,14.1781614 63.3256515,14.8289852 C63.6044559,15.4802756 63.7438581,16.1819523 63.7438581,16.9343263 C63.7438581,17.6870114 63.6044559,18.3888437 63.3256515,19.0396674 C63.0484872,19.6908023 62.6680013,20.260137 62.1874738,20.7482937 C61.7069463,21.2364505 61.1444175,21.617925 60.5031675,21.8924062 C59.8619175,22.1671985 59.1780269,22.3043613 58.4498555,22.3043613 C57.7233242,22.3043613 57.0377935,22.1671985 56.3965435,21.8924062 C55.7552935,21.617925 55.1944047,21.2364505 54.7122372,20.7482937 C54.2317097,20.260137 53.8512238,19.6908023 53.5740595,19.0396674 C53.4346573,18.7149554 53.3313357,18.3774912 53.2624546,18.0274304 L48.5883817,18.0274304 C48.6933434,18.9224103 48.927867,19.7738465 49.2952327,20.5804947 C49.8102008,21.7093669 50.5186918,22.6911233 51.4190659,23.5248309 C52.3210799,24.3591606 53.3706963,25.0151163 54.572835,25.4930092 C55.7733338,25.9707465 57.0607538,26.2099262 58.4334552,26.2099262 C59.8061566,26.2099262 61.1001368,25.9707465 62.3121157,25.4930092 C63.5240946,25.0151163 64.5802711,24.3639815 65.4806451,23.5402268 C66.3826592,22.7163165 67.0895102,21.7398475 67.6044783,20.6109754 C68.1194463,19.4819477 68.3769303,18.2568127 68.3769303,16.9343263 C68.3769303,15.6326787 68.1194463,14.4122092 67.6044783,13.2727621 C67.0895102,12.1339371 66.3826592,11.1523362 65.4806451,10.3284259" id="Fill-5"></path>
        <path d="M96.2721253,9.3825931 C95.6275953,8.78277772 94.8715435,8.34516286 94.0023299,8.07052611 C93.1314763,7.79588935 92.213062,7.65857097 91.247087,7.65857097 C90.0646285,7.65857097 88.9805716,7.83165745 87.9932762,8.17736385 C87.0043408,8.52338128 86.0285256,9.10313543 85.0609105,9.91647078 C84.3737398,9.18415794 83.5750473,8.62493156 82.6615531,8.23832512 C81.7480588,7.85218522 80.8411247,7.65857097 79.9391106,7.65857097 C79.1223779,7.65857097 78.3236854,7.82170459 77.5397532,8.1467277 C76.755821,8.47237287 76.0735703,8.89956832 75.4930013,9.42831406 L75.4880812,8.11624706 L70.855009,8.11624706 L70.855009,25.7522501 L75.4880812,25.7522501 L75.4880812,12.9066834 C76.0670102,12.3984655 76.6246189,12.0270994 77.1609073,11.7930516 C77.6971957,11.5593149 78.3204054,11.4420577 79.0272564,11.4420577 C79.9292705,11.4420577 80.6951624,11.7624155 81.3282123,12.4031309 C81.9612621,13.0440018 82.2777871,13.9850137 82.2777871,15.2255445 L82.2777871,25.7522501 L86.9108593,25.7522501 L86.9108593,15.2255445 C86.9108593,14.3307201 86.8157379,13.5273376 86.6222148,12.815086 C87.2224642,12.3269293 87.8391138,11.9760909 88.4721637,11.7624155 C89.1052136,11.5488955 89.775984,11.4420577 90.482835,11.4420577 C91.4045294,11.4420577 92.1835416,11.7624155 92.8165914,12.4031309 C93.4480013,13.0440018 93.7645262,13.9850137 93.7645262,15.2255445 L93.7645262,25.7522501 L98.3992385,25.7522501 L98.3992385,15.0120246 C98.3992385,13.7105325 98.2057155,12.5967451 97.8186694,11.6709736 C97.4316234,10.745513 96.9166554,9.98287503 96.2721253,9.3825931" id="Fill-6"></path>
        <path d="M119.926214,13.2727621 C119.411246,12.1339371 118.702755,11.1523362 117.802381,10.3284259 C116.900367,9.50451565 115.844191,8.85384737 114.632212,8.3756435 C113.420233,7.89790618 112.127893,7.65857097 110.755191,7.65857097 C109.40381,7.65857097 108.12787,7.89790618 106.925731,8.3756435 C105.723593,8.85384737 104.673976,9.51509056 103.771962,10.3589066 C102.871588,11.2031891 102.158177,12.1896109 101.633369,13.3186386 C101.280763,14.0730343 101.04952,14.8624206 100.933078,15.6850868 L105.616991,15.6850868 C105.685872,15.3908553 105.776074,15.1050216 105.894155,14.8289852 C106.17296,14.1781614 106.551806,13.6083601 107.033973,13.1202034 C107.514501,12.6320467 108.075389,12.2507277 108.718279,11.9760909 C109.359529,11.7014542 110.04342,11.5641358 110.771591,11.5641358 C111.498123,11.5641358 112.182013,11.7014542 112.823263,11.9760909 C113.466153,12.2507277 114.027042,12.6320467 114.50921,13.1202034 C114.989737,13.6083601 115.368583,14.1781614 115.647387,14.8289852 C115.924552,15.4802756 116.063954,16.1819523 116.063954,16.9343263 C116.063954,17.6870114 115.924552,18.3888437 115.647387,19.0396674 C115.368583,19.6908023 114.989737,20.260137 114.50921,20.7482937 C114.027042,21.2364505 113.466153,21.617925 112.823263,21.8924062 C112.182013,22.1671985 111.498123,22.3043613 110.771591,22.3043613 C110.04342,22.3043613 109.359529,22.1671985 108.718279,21.8924062 C108.075389,21.617925 107.514501,21.2364505 107.033973,20.7482937 C106.551806,20.260137 106.17296,19.6908023 105.894155,19.0396674 C105.756393,18.7149554 105.651432,18.3774912 105.582551,18.0274304 L100.910118,18.0274304 C101.015079,18.9224103 101.249603,19.7738465 101.616969,20.5804947 C102.131937,21.7093669 102.838788,22.6911233 103.740802,23.5248309 C104.641176,24.3591606 105.692432,25.0151163 106.894571,25.4930092 C108.09507,25.9707465 109.38249,26.2099262 110.755191,26.2099262 C112.127893,26.2099262 113.420233,25.9707465 114.632212,25.4930092 C115.844191,25.0151163 116.900367,24.3639815 117.802381,23.5402268 C118.702755,22.7163165 119.411246,21.7398475 119.926214,20.6109754 C120.441182,19.4819477 120.698666,18.2568127 120.698666,16.9343263 C120.698666,15.6326787 120.441182,14.4122092 119.926214,13.2727621" id="Fill-7"></path>
    </g>
</svg>